PathFileType	4	(X/Y/Z)	CPRIT_Patient3_R_KneeIso_Processed.TRC
DataRate	CameraRate	NumFrames	NumMarkers	Units	OrigDataRate	OrigDataStartFrame	OrigNumFrames
150.195058517555	150.195058517555	5	39	m	150.195058517555	386	       771
Frame#	Time	R.Heel			R.Midfoot.Superior			R.Midfoot.Lateral			R.Toe			L.Heel			L.Midfoot.Superior			L.Midfoot.Lateral			L.Toe			R.Shank.Superior			R.Shank.Inferior			R.Shank.Lateral			R.Shank.Posterior			L.Shank.Superior			L.Shank.Inferior			L.Shank.Posterior			L.Shank.Lateral			R.Patella			L.Patella			R.Thigh.Superior			R.Thigh.Lateral			R.Thigh.Inferior			L.Thigh.Superior			L.Thigh.Inferior			L.Thigh.Lateral			L.ASIS			R.ASIS			Sacral			R.Shoulder			L.Shoulder			C7			J.Notch			Sternum			Thoracic			L.Elbow			L.Wrist			R.Elbow			R.Wrist			R.PSIS			L.PSIS			
		X1	Y1	Z1	X2	Y2	Z2	X3	Y3	Z3	X4	Y4	Z4	X5	Y5	Z5	X6	Y6	Z6	X7	Y7	Z7	X8	Y8	Z8	X9	Y9	Z9	X10	Y10	Z10	X11	Y11	Z11	X12	Y12	Z12	X13	Y13	Z13	X14	Y14	Z14	X15	Y15	Z15	X16	Y16	Z16	X17	Y17	Z17	X18	Y18	Z18	X19	Y19	Z19	X20	Y20	Z20	X21	Y21	Z21	X22	Y22	Z22	X23	Y23	Z23	X24	Y24	Z24	X25	Y25	Z25	X26	Y26	Z26	X27	Y27	Z27	X28	Y28	Z28	X29	Y29	Z29	X30	Y30	Z30	X31	Y31	Z31	X32	Y32	Z32	X33	Y33	Z33	X34	Y34	Z34	X35	Y35	Z35	X36	Y36	Z36	X37	Y37	Z37	X38	Y38	Z38	X39	Y39	Z39	

386	2.563333333333	0.944494978153	0.068622068243	0.077539719236	1.084111499231	0.176677652030	0.099683041557	1.017563635402	0.085823267606	0.137732261942	1.208147886503	0.177093315542	0.114827133034	0.653607500554	0.042680725878	-0.090829534527	0.817963076564	0.096279418905	-0.136461064729	0.721088847475	0.032710549128	-0.161269245192	0.932055270086	0.056835826929	-0.163498795900	0.962095932714	0.416582744401	0.097290811698	0.991100613108	0.298588800229	0.102111504640	0.908264095391	0.333299171305	0.154080305339	0.830770199264	0.367974118069	0.091590317763	0.767509114563	0.364954887656	-0.160790563103	0.761352884292	0.237350220737	-0.145113983491	0.630055422576	0.339664670306	-0.145939596631	0.697782582352	0.276499366746	-0.198931004940	0.945274962809	0.539110044576	0.071459158104	0.792919586214	0.466407583700	-0.158311425836	0.860937770684	0.829087223941	0.088086427083	0.808358974608	0.739412175651	0.139618664678	0.910150443252	0.686300375793	0.057211574986	0.844176334793	0.775342775771	-0.179557808139	0.829280013366	0.610757962613	-0.165780387179	0.745682986139	0.703956926499	-0.233585268091	0.834565018002	0.935508559103	-0.171430952141	0.803547295208	0.956577284885	0.066909532924	0.631874360977	0.991149609516	-0.066725369616	0.753813765542	1.451048523717	0.081308665519	0.772477839628	1.463242361576	-0.232113867740	0.705727508430	1.479548580243	-0.077324525171	0.823240653485	1.375414673333	-0.073568332050	0.872695093064	1.194243875713	-0.073263808486	0.620463304265	1.323899703825	-0.085577225073	0.753343092198	1.185239150682	-0.412678612467	0.903244614923	0.987187075163	-0.450952628171	0.667572272173	1.180319488032	0.256852227700	0.736320726218	0.981742465617	0.383949826105	0.630573297383	0.993087622368	-0.029338682004	0.635756348306	0.990867958136	-0.104459655528	
387	2.569991341991	0.944661503311	0.068687486882	0.077824146547	1.084301380132	0.176746511628	0.099744415278	1.017786943656	0.085927447871	0.137930064643	1.208350583785	0.177160083562	0.114769041938	0.653607823105	0.042680803042	-0.090828884291	0.817966386785	0.096279566369	-0.136464579794	0.721089325686	0.032710757297	-0.161268839501	0.932055670384	0.056834744484	-0.163499560529	0.962408412062	0.416674387703	0.097330699379	0.991356930579	0.298662708062	0.102162826723	0.908608185106	0.333470085581	0.154202287130	0.831060472452	0.368097944141	0.091796288573	0.767524884477	0.364953310913	-0.160799563217	0.761361761112	0.237345613382	-0.145121309625	0.630068646671	0.339672233919	-0.145926347537	0.697782370769	0.276501145892	-0.198930839542	0.945580478902	0.539197396731	0.071444848757	0.792941696759	0.466404634723	-0.158340918136	0.861089225602	0.829253073493	0.088059312052	0.808620675651	0.739528054664	0.139591144374	0.910334745629	0.686408132911	0.057122935499	0.844200813418	0.775344771344	-0.179620689373	0.829309881759	0.610760827195	-0.165821765015	0.745696014261	0.703955897116	-0.233615553438	0.834585114063	0.935519495441	-0.171492660959	0.803646019109	0.956593072982	0.066852250491	0.631924604434	0.991136508577	-0.066718248292	0.753820709045	1.451043804115	0.081306409072	0.772499162613	1.463245358417	-0.232114868811	0.705754542880	1.479546567794	-0.077319479723	0.823249116946	1.375408654343	-0.073573545250	0.872714428799	1.194249533263	-0.073294494774	0.620476649105	1.323894729709	-0.085578456292	0.753367997223	1.185254192434	-0.412691230667	0.903252070258	0.987186615781	-0.450959325487	0.667578872717	1.180320255696	0.256855080204	0.736323114931	0.981742172748	0.383950803475	0.630635116636	0.993076724024	-0.029332697246	0.635797204243	0.990852460512	-0.104453590763	
388	2.576649350649	0.944746856872	0.068731984524	0.078127271553	1.084428995692	0.176779224017	0.099786680980	1.017945432205	0.086005790140	0.138128969806	1.208494832005	0.177176903896	0.114663572449	0.653608186002	0.042680833134	-0.090828243510	0.817968950909	0.096279574391	-0.136467115070	0.721089775701	0.032710930415	-0.161268433462	0.932055960029	0.056833642065	-0.163500205477	0.962693851851	0.416746100386	0.097357977629	0.991568750242	0.298711987103	0.102202492816	0.908924654376	0.333630637239	0.154330222338	0.831316488069	0.368220062213	0.092018562768	0.767541308912	0.364951984214	-0.160808147038	0.761370597817	0.237341250752	-0.145128717848	0.630082377844	0.339680410057	-0.145911712555	0.697781866270	0.276503397579	-0.198930179337	0.945874421583	0.539266609794	0.071415275193	0.792964651046	0.466401408633	-0.158370601415	0.861247113761	0.829409717060	0.088020599674	0.808890406078	0.739640922480	0.139563034224	0.910517008245	0.686501186316	0.057020377771	0.844227162140	0.775345853438	-0.179685861689	0.829340702715	0.610762920276	-0.165864785214	0.745709910062	0.703954864752	-0.233645978068	0.834608858901	0.935529373386	-0.171556195021	0.803753354095	0.956609280021	0.066792665256	0.631980511579	0.991125455079	-0.066708561654	0.753828471111	1.451039879659	0.081303275286	0.772511758863	1.463248246993	-0.232119282273	0.705779125007	1.479544539739	-0.077314558675	0.823256160924	1.375405910568	-0.073581523669	0.872738185574	1.194259365781	-0.073330169360	0.620490499282	1.323887678744	-0.085578092542	0.753386173196	1.185265134552	-0.412701647241	0.903258176232	0.987186180111	-0.450965706896	0.667588911743	1.180321600307	0.256857353445	0.736326195879	0.981741923461	0.383951800775	0.630703211267	0.993068171292	-0.029324127983	0.635843386590	0.990839036234	-0.104445399971	
389	2.583307359307	0.944755171555	0.068756339574	0.078443120199	1.084496634061	0.176777744135	0.099811371233	1.018040778021	0.086058826510	0.138326169964	1.208582298874	0.177146857848	0.114517217102	0.653608589745	0.042680831875	-0.090827613624	0.817970733145	0.096279407573	-0.136468581750	0.721090202062	0.032711077234	-0.161268026250	0.932056185579	0.056832526541	-0.163500730673	0.962951463370	0.416798242866	0.097373443360	0.991736835466	0.298737561366	0.102231106372	0.909211617975	0.333779567996	0.154461841934	0.831538183597	0.368339595267	0.092252490491	0.767558528100	0.364950891641	-0.160816041541	0.761379549333	0.237337166171	-0.145135961607	0.630096759378	0.339689189011	-0.145895795564	0.697781358696	0.276506157760	-0.198928966531	0.946156025943	0.539317917420	0.071372378245	0.792988555900	0.466397979763	-0.158399931466	0.861409776809	0.829555583175	0.087971588822	0.809165082868	0.739749850454	0.139535107145	0.910696240965	0.686579505734	0.056906634286	0.844255486081	0.775346076401	-0.179752113556	0.829372592508	0.610764267729	-0.165908518326	0.745724861910	0.703953780386	-0.233675951315	0.834636490853	0.935538058997	-0.171620534950	0.803868237047	0.956625928598	0.066731771120	0.632041813696	0.991116578533	-0.066696624682	0.753837849342	1.451036724309	0.081299128302	0.772516067114	1.463251027986	-0.232127276701	0.705801637935	1.479542628470	-0.077309921620	0.823262159847	1.375406559778	-0.073592462321	0.872766676132	1.194273298593	-0.073370778902	0.620505253457	1.323878817905	-0.085576425812	0.753397790144	1.185272024509	-0.412710008192	0.903262998438	0.987185754624	-0.450971865993	0.667602919433	1.180323545405	0.256858893851	0.736330053075	0.981741709744	0.383952791898	0.630777073110	0.993062058439	-0.029313268038	0.635894747405	0.990827840648	-0.104435345227	
390	2.589965367965	0.944689890967	0.068761537427	0.078765741761	1.084506159598	0.176743712404	0.099820098536	1.018073912743	0.086087056403	0.138518980006	1.208614196643	0.177072285823	0.114336651420	0.653609031422	0.042680818083	-0.090826998571	0.817971706086	0.096279049503	-0.136468908113	0.721090609859	0.032711205920	-0.161267616885	0.932056389977	0.056831406055	-0.163501140386	0.963180900564	0.416831200838	0.097377929669	0.991862002778	0.298740308436	0.102249313462	0.909467335727	0.333915876053	0.154594828037	0.831725785112	0.368456083866	0.092493353987	0.767576674187	0.364950014380	-0.160823001281	0.761388763439	0.237333383366	-0.145142814630	0.630111929949	0.339698558684	-0.145878731808	0.697781145719	0.276509453471	-0.198927154547	0.946425233436	0.539351705671	0.071318162219	0.793013515868	0.466394428054	-0.158428373402	0.861575558419	0.829689412957	0.087913840695	0.809441792220	0.739853964147	0.139508069752	0.910871843484	0.686643392716	0.056784607020	0.844285873032	0.775345520261	-0.179818184775	0.829405677399	0.610764917219	-0.165952000772	0.745741053248	0.703952589797	-0.233704881514	0.834668175461	0.935545459466	-0.171684626376	0.803989466535	0.956643030263	0.066670602061	0.632108138627	0.991109942057	-0.066682773596	0.753849615472	1.451034293856	0.081293846665	0.772512717293	1.463253691798	-0.232138955166	0.705822503835	1.479540954723	-0.077305752662	0.823267510429	1.375410633020	-0.073606495620	0.872800123678	1.194291167815	-0.073416154264	0.620521274211	1.323868437711	-0.085573778622	0.753403188124	1.185275005389	-0.412716537609	0.903266647116	0.987185324470	-0.450977914811	0.667621353913	1.180326106968	0.256859562573	0.736334756071	0.981741523431	0.383953753572	0.630856091906	0.993058401747	-0.029300430506	0.635951037218	0.990818956170	-0.104423695807	
